<mxfile host="app.diagrams.net" modified="2024-01-27T10:21:17.256Z" agent="Mozilla/5.0 (Windows NT 10.0; Win64; x64) AppleWebKit/537.36 (KHTML, like Gecko) Chrome/120.0.0.0 Safari/537.36" etag="SHD2ug4X6Cu0ZkwqgOCS" version="23.0.2" type="github">
  <diagram name="Page-1" id="e7e014a7-5840-1c2e-5031-d8a46d1fe8dd">
    <mxGraphModel dx="3081" dy="1107" grid="1" gridSize="10" guides="1" tooltips="1" connect="1" arrows="1" fold="1" page="1" pageScale="1" pageWidth="1169" pageHeight="826" background="none" math="0" shadow="0">
      <root>
        <mxCell id="0" />
        <mxCell id="1" parent="0" />
        <mxCell id="0xwLD6q9fh4d17aWVmFu-51" value="" style="endArrow=classic;html=1;rounded=0;fontSize=12;startSize=8;endSize=8;curved=1;" edge="1" parent="1">
          <mxGeometry width="50" height="50" relative="1" as="geometry">
            <mxPoint x="-862" y="257.99999999999994" as="sourcePoint" />
            <mxPoint x="-587" y="257.99999999999994" as="targetPoint" />
          </mxGeometry>
        </mxCell>
        <mxCell id="0xwLD6q9fh4d17aWVmFu-55" value="" style="endArrow=classic;html=1;rounded=0;fontSize=12;startSize=8;endSize=8;curved=1;" edge="1" parent="1">
          <mxGeometry width="50" height="50" relative="1" as="geometry">
            <mxPoint x="-577" y="294.83000000000004" as="sourcePoint" />
            <mxPoint x="-307" y="294.83000000000004" as="targetPoint" />
          </mxGeometry>
        </mxCell>
        <mxCell id="0xwLD6q9fh4d17aWVmFu-58" value="" style="endArrow=classic;html=1;rounded=0;fontSize=12;startSize=8;endSize=8;curved=1;" edge="1" parent="1">
          <mxGeometry width="50" height="50" relative="1" as="geometry">
            <mxPoint x="-307" y="334.83000000000004" as="sourcePoint" />
            <mxPoint x="-587" y="334.83000000000004" as="targetPoint" />
          </mxGeometry>
        </mxCell>
        <mxCell id="0xwLD6q9fh4d17aWVmFu-59" value="" style="endArrow=classic;html=1;rounded=0;fontSize=12;startSize=8;endSize=8;curved=1;" edge="1" parent="1">
          <mxGeometry width="50" height="50" relative="1" as="geometry">
            <mxPoint x="-592" y="387.99999999999994" as="sourcePoint" />
            <mxPoint x="-862" y="387.99999999999994" as="targetPoint" />
          </mxGeometry>
        </mxCell>
        <mxCell id="0xwLD6q9fh4d17aWVmFu-64" value="" style="endArrow=classic;html=1;rounded=0;fontSize=12;startSize=8;endSize=8;curved=1;" edge="1" parent="1">
          <mxGeometry width="50" height="50" relative="1" as="geometry">
            <mxPoint x="-862" y="447.99999999999994" as="sourcePoint" />
            <mxPoint x="-592" y="447.99999999999994" as="targetPoint" />
          </mxGeometry>
        </mxCell>
        <mxCell id="0xwLD6q9fh4d17aWVmFu-72" value="" style="image;aspect=fixed;html=1;points=[];align=center;fontSize=12;image=img/lib/azure2/general/Browser.svg;" vertex="1" parent="1">
          <mxGeometry x="-900" y="150" width="65" height="52" as="geometry" />
        </mxCell>
        <mxCell id="0xwLD6q9fh4d17aWVmFu-73" value="" style="image;aspect=fixed;html=1;points=[];align=center;fontSize=12;image=img/lib/azure2/general/Browser.svg;" vertex="1" parent="1">
          <mxGeometry x="-900" y="590" width="65" height="52" as="geometry" />
        </mxCell>
        <mxCell id="0xwLD6q9fh4d17aWVmFu-74" value="" style="endArrow=none;dashed=1;html=1;rounded=0;fontSize=12;startSize=8;endSize=8;curved=1;entryX=0.554;entryY=1.019;entryDx=0;entryDy=0;entryPerimeter=0;exitX=0.508;exitY=-0.019;exitDx=0;exitDy=0;exitPerimeter=0;" edge="1" parent="1" source="0xwLD6q9fh4d17aWVmFu-73" target="0xwLD6q9fh4d17aWVmFu-72">
          <mxGeometry width="50" height="50" relative="1" as="geometry">
            <mxPoint x="-867" y="570" as="sourcePoint" />
            <mxPoint x="-867.5" y="210" as="targetPoint" />
          </mxGeometry>
        </mxCell>
        <mxCell id="0xwLD6q9fh4d17aWVmFu-75" value="/auth/singin&lt;br&gt;input : username and password" style="text;html=1;strokeColor=none;fillColor=none;align=left;verticalAlign=middle;whiteSpace=wrap;rounded=0;fontSize=16;" vertex="1" parent="1">
          <mxGeometry x="-862" y="220" width="234.5" height="30" as="geometry" />
        </mxCell>
        <mxCell id="0xwLD6q9fh4d17aWVmFu-76" value="login complete, with beared token" style="text;html=1;strokeColor=none;fillColor=none;align=left;verticalAlign=middle;whiteSpace=wrap;rounded=0;fontSize=16;" vertex="1" parent="1">
          <mxGeometry x="-862" y="350" width="254.5" height="30" as="geometry" />
        </mxCell>
        <mxCell id="0xwLD6q9fh4d17aWVmFu-77" value="fetch /me with beared token" style="text;html=1;strokeColor=none;fillColor=none;align=left;verticalAlign=middle;whiteSpace=wrap;rounded=0;fontSize=16;" vertex="1" parent="1">
          <mxGeometry x="-862" y="420" width="214.5" height="30" as="geometry" />
        </mxCell>
        <mxCell id="0xwLD6q9fh4d17aWVmFu-78" value="Return user data" style="text;html=1;strokeColor=none;fillColor=none;align=left;verticalAlign=middle;whiteSpace=wrap;rounded=0;fontSize=16;" vertex="1" parent="1">
          <mxGeometry x="-862" y="530" width="205.5" height="30" as="geometry" />
        </mxCell>
        <mxCell id="0xwLD6q9fh4d17aWVmFu-45" value="" style="image;aspect=fixed;perimeter=ellipsePerimeter;html=1;align=center;shadow=0;dashed=0;spacingTop=3;image=img/lib/active_directory/web_server.svg;fontSize=16;" vertex="1" parent="1">
          <mxGeometry x="-607" y="150" width="40" height="50" as="geometry" />
        </mxCell>
        <mxCell id="0xwLD6q9fh4d17aWVmFu-47" value="" style="endArrow=none;dashed=1;html=1;rounded=0;fontSize=12;startSize=8;endSize=8;curved=1;entryX=0.5;entryY=1;entryDx=0;entryDy=0;exitX=0.5;exitY=0;exitDx=0;exitDy=0;" edge="1" parent="1" source="0xwLD6q9fh4d17aWVmFu-46" target="0xwLD6q9fh4d17aWVmFu-45">
          <mxGeometry width="50" height="50" relative="1" as="geometry">
            <mxPoint x="-802" y="420" as="sourcePoint" />
            <mxPoint x="-752" y="370" as="targetPoint" />
          </mxGeometry>
        </mxCell>
        <mxCell id="0xwLD6q9fh4d17aWVmFu-46" value="" style="image;aspect=fixed;perimeter=ellipsePerimeter;html=1;align=center;shadow=0;dashed=0;spacingTop=3;image=img/lib/active_directory/web_server.svg;fontSize=16;" vertex="1" parent="1">
          <mxGeometry x="-612" y="590" width="40" height="50" as="geometry" />
        </mxCell>
        <mxCell id="0xwLD6q9fh4d17aWVmFu-70" value="" style="endArrow=classic;html=1;rounded=0;fontSize=12;startSize=8;endSize=8;curved=1;" edge="1" parent="1">
          <mxGeometry width="50" height="50" relative="1" as="geometry">
            <mxPoint x="-592" y="562" as="sourcePoint" />
            <mxPoint x="-862" y="562" as="targetPoint" />
          </mxGeometry>
        </mxCell>
        <mxCell id="0xwLD6q9fh4d17aWVmFu-69" value="" style="endArrow=classic;html=1;rounded=0;fontSize=12;startSize=8;endSize=8;curved=1;" edge="1" parent="1">
          <mxGeometry width="50" height="50" relative="1" as="geometry">
            <mxPoint x="-312" y="532" as="sourcePoint" />
            <mxPoint x="-592" y="532" as="targetPoint" />
          </mxGeometry>
        </mxCell>
        <mxCell id="0xwLD6q9fh4d17aWVmFu-67" value="User data" style="text;html=1;strokeColor=none;fillColor=none;align=left;verticalAlign=middle;whiteSpace=wrap;rounded=0;fontSize=16;" vertex="1" parent="1">
          <mxGeometry x="-587" y="500" width="194.5" height="30" as="geometry" />
        </mxCell>
        <mxCell id="0xwLD6q9fh4d17aWVmFu-68" value="" style="endArrow=classic;html=1;rounded=0;fontSize=12;startSize=8;endSize=8;curved=1;" edge="1" parent="1">
          <mxGeometry width="50" height="50" relative="1" as="geometry">
            <mxPoint x="-582" y="492" as="sourcePoint" />
            <mxPoint x="-312" y="492" as="targetPoint" />
          </mxGeometry>
        </mxCell>
        <mxCell id="0xwLD6q9fh4d17aWVmFu-66" value="query user data" style="text;html=1;strokeColor=none;fillColor=none;align=left;verticalAlign=middle;whiteSpace=wrap;rounded=0;fontSize=16;" vertex="1" parent="1">
          <mxGeometry x="-587" y="452" width="279.5" height="42" as="geometry" />
        </mxCell>
        <mxCell id="0xwLD6q9fh4d17aWVmFu-56" value="query to verify password" style="text;html=1;strokeColor=none;fillColor=none;align=left;verticalAlign=middle;whiteSpace=wrap;rounded=0;fontSize=16;" vertex="1" parent="1">
          <mxGeometry x="-587" y="258" width="279.5" height="42" as="geometry" />
        </mxCell>
        <mxCell id="0xwLD6q9fh4d17aWVmFu-79" value="" style="image;aspect=fixed;perimeter=ellipsePerimeter;html=1;align=center;shadow=0;dashed=0;spacingTop=3;image=img/lib/active_directory/database.svg;fontSize=16;" vertex="1" parent="1">
          <mxGeometry x="-330.5" y="153" width="50" height="37" as="geometry" />
        </mxCell>
        <mxCell id="0xwLD6q9fh4d17aWVmFu-80" value="" style="image;aspect=fixed;perimeter=ellipsePerimeter;html=1;align=center;shadow=0;dashed=0;spacingTop=3;image=img/lib/active_directory/database.svg;fontSize=16;" vertex="1" parent="1">
          <mxGeometry x="-330.5" y="593" width="50" height="37" as="geometry" />
        </mxCell>
        <mxCell id="0xwLD6q9fh4d17aWVmFu-81" value="" style="endArrow=none;dashed=1;html=1;rounded=0;fontSize=12;startSize=8;endSize=8;curved=1;entryX=0.5;entryY=1;entryDx=0;entryDy=0;exitX=0.5;exitY=0;exitDx=0;exitDy=0;" edge="1" parent="1" source="0xwLD6q9fh4d17aWVmFu-80" target="0xwLD6q9fh4d17aWVmFu-79">
          <mxGeometry width="50" height="50" relative="1" as="geometry">
            <mxPoint x="-510" y="416.5" as="sourcePoint" />
            <mxPoint x="-460" y="366.5" as="targetPoint" />
          </mxGeometry>
        </mxCell>
        <mxCell id="0xwLD6q9fh4d17aWVmFu-82" value="Login history saved" style="text;html=1;strokeColor=none;fillColor=none;align=left;verticalAlign=middle;whiteSpace=wrap;rounded=0;fontSize=16;" vertex="1" parent="1">
          <mxGeometry x="-587" y="300" width="194.5" height="30" as="geometry" />
        </mxCell>
      </root>
    </mxGraphModel>
  </diagram>
</mxfile>
